<svg version="1.1" xmlns="http://www.w3.org/2000/svg" xmlns:xlink="http://www.w3.org/1999/xlink" width="48" height="48"><defs><linearGradient x1="10.46951" y1="14.97967" x2="64.77916" y2="63.18441" gradientUnits="userSpaceOnUse" id="color-1"><stop offset="0" stop-color="#000000" stop-opacity="0.34"></stop><stop offset="1" stop-color="#000000" stop-opacity="0"></stop></linearGradient><filter id="dropshadow-base"><feColorMatrix type="matrix" values="0 0 0 0 0  0 0 0 0 0  0 0 0 0 0  0 0 0 .8 0"></feColorMatrix> <feOffset dx="0" dy="1"></feOffset> <feGaussianBlur stdDeviation="1"></feGaussianBlur> <feComposite in="SourceGraphic"></feComposite></filter><filter id="dropshadow-banner" x="-10%" y="-10%" width="120%" height="130%"><feColorMatrix type="matrix" values="0 0 0 0 0  0 0 0 0 0  0 0 0 0 0  0 0 0 .4 0"></feColorMatrix> <feOffset dx="0" dy="1"></feOffset> <feGaussianBlur stdDeviation="0.5"></feGaussianBlur> <feComposite in="SourceGraphic"></feComposite></filter></defs><g fill="none" fill-rule="nonzero" stroke="none" stroke-width="none" stroke-linecap="butt" stroke-linejoin="miter" stroke-miterlimit="10" stroke-dasharray="" stroke-dashoffset="0" font-family="none" font-weight="none" font-size="none" text-anchor="none" style="mix-blend-mode: normal"><path d="M2,24c0,-12.15026 9.84974,-22 22,-22c12.15026,0 22,9.84974 22,22c0,12.15026 -9.84974,22 -22,22c-12.15026,0 -22,-9.84974 -22,-22z" id="base 1 5" fill="#9e9e9e" stroke-width="1"></path><path d="M10.46951,33.02033l0.01126,-10.13661l-0.01126,-0.01126v-5.63771h2.25509l7.57063,7.57063l3.141,-4.188l4.46101,4.46101l2.30424,-2.7697l12.79498,12.79498c-3.81844,6.51861 -10.89621,10.89634 -18.99645,10.89634c-0.5171,0 -1.03003,-0.01784 -1.53822,-0.05294l-11.33196,-11.33196c-0.40803,-0.40803 -0.66032,-0.9718 -0.66032,-1.59477zM26.25507,14.97967h9.02033c0.62297,0 1.18674,0.25229 1.59477,0.66032l9.11704,9.11704c-0.09729,2.87711 -0.74703,5.61412 -1.84648,8.1083z" fill="url(#color-1)" stroke-width="1"></path><path d="M12.72459,17.23475h-2.25508v5.63771h0.01128l-0.01128,10.14787c0,1.24593 1.00915,2.25508 2.25508,2.25508h20.29574v-2.25508h-20.29574zM35.27541,14.97967h-9.02033l-2.25508,-2.25508h-6.76525c-1.24593,0 -2.24381,1.00915 -2.24381,2.25508l-0.01128,13.53049c0,1.24593 1.00915,2.25508 2.25508,2.25508h18.04066c1.24593,0 2.25508,-1.00915 2.25508,-2.25508v-11.27541c0,-1.24593 -1.00915,-2.25508 -2.25508,-2.25508zM18.36229,27.38262l5.07394,-6.76525l3.94639,5.07957l2.81885,-3.38826l3.94639,5.07394z" fill="none" stroke-width="0"></path><path d="M12.72459,33.02033h20.29574v2.25508h-20.29574c-1.24593,0 -2.25508,-1.00915 -2.25508,-2.25508l0.01128,-10.14787h-0.01128v-5.63771h2.25508zM37.53049,17.23475v11.27541c0,1.24593 -1.00915,2.25508 -2.25508,2.25508h-18.04066c-1.24593,0 -2.25508,-1.00915 -2.25508,-2.25508l0.01128,-13.53049c0,-1.24593 0.99787,-2.25508 2.24381,-2.25508h6.76525l2.25508,2.25508h9.02033c1.24593,0 2.25508,1.00915 2.25508,2.25508zM34.14787,27.38262l-3.94639,-5.07394l-2.81885,3.38826l-3.94639,-5.07957l-5.07394,6.76525z" fill="#383838" stroke-width="0"></path><path d="M2,24c0,-12.15026 9.84974,-22 22,-22c12.15026,0 22,9.84974 22,22c0,12.15026 -9.84974,22 -22,22c-12.15026,0 -22,-9.84974 -22,-22z" id="base 1 1 1" fill="none" stroke-width="1"></path><g fill="#000000" stroke-width="1" font-family="Roboto, sans-serif" font-weight="normal" font-size="14" text-anchor="start"></g><rect x="2" y="2" width="44" height="22" fill="none" stroke-width="1"></rect><path d="M2,24v-22h44v22z" fill="none" stroke-width="1"></path><path d="M2,24v-22h44v22z" fill="none" stroke-width="1"></path><path d="M2,24v-22h44v22z" fill="none" stroke-width="1"></path><path d="M2,24v-22h44v22z" fill="none" stroke-width="1"></path></g></svg>